<svg width="24" height="34" viewBox="0 0 24 34" fill="none" xmlns="http://www.w3.org/2000/svg">
<g clip-path="url(#clip0)">
<path d="M22.9889 26.8103H22.8208V26.7387H23.2736V26.8103H23.1065V27.1678H22.9889V26.8103V26.8103ZM23.8919 26.829H23.8893L23.7226 27.1679H23.6463L23.4808 26.829H23.4788V27.1679H23.368V26.7388H23.531L23.6845 27.0427L23.8375 26.7388H24V27.1679H23.8918L23.8919 26.829V26.829Z" fill="#9EF01A"/>
<path d="M7.93493 18.0352C7.93493 18.0352 6.76492 18.5534 8.76759 18.7288C11.1938 18.9396 12.4338 18.9093 15.1074 18.524C15.1074 18.524 15.8104 18.8596 16.7921 19.1504C10.7984 21.1067 3.22723 19.0371 7.93493 18.0352ZM7.20254 15.4823C7.20254 15.4823 5.89025 16.2221 7.89441 16.38C10.4861 16.5836 12.5329 16.6003 16.0745 16.0809C16.0745 16.0809 16.5645 16.4591 17.3347 16.6659C10.088 18.2798 2.01645 16.7932 7.20254 15.4823" fill="#9EF01A"/>
<path d="M13.3768 11.1516C14.8536 12.4466 12.9888 13.6119 12.9888 13.6119C12.9888 13.6119 16.7386 12.1376 15.0165 10.2914C13.4081 8.56966 12.1746 7.71429 18.8521 4.76483C18.8522 4.76477 8.37058 6.75847 13.3768 11.1516" fill="#9EF01A"/>
<path d="M21.3038 19.9236C21.3038 19.9236 22.1696 20.467 20.3503 20.8872C16.8907 21.6854 5.95104 21.9265 2.91206 20.9191C1.81962 20.5571 3.86825 20.0548 4.51267 19.9494C5.18473 19.8384 5.56879 19.8591 5.56879 19.8591C4.35389 19.2073 -2.28382 21.1389 2.19716 21.6921C14.4175 23.2015 24.4737 21.0125 21.3038 19.9236V19.9236ZM8.49752 12.8372C8.49752 12.8372 2.93293 13.8438 6.52696 14.2093C8.04447 14.364 11.0696 14.329 13.8873 14.1492C16.1902 14.0013 18.5027 13.6868 18.5027 13.6868C18.5027 13.6868 17.6906 13.9516 17.1032 14.2571C11.4524 15.389 0.536226 14.8624 3.67886 13.7046C6.33658 12.7262 8.49752 12.8372 8.49752 12.8372V12.8372ZM18.4797 17.0867C24.224 14.8134 21.5681 12.6287 19.7143 12.923C19.2599 12.9951 19.0573 13.0575 19.0573 13.0575C19.0573 13.0575 19.2261 12.8562 19.5481 12.7691C23.2155 11.7872 26.0359 15.6653 18.3642 17.2013C18.3642 17.2013 18.4532 17.1409 18.4797 17.0867Z" fill="#9EF01A"/>
<path d="M15.0165 0.00158691C15.0165 0.00158691 18.1977 2.42518 11.9992 6.15215C7.02868 9.1417 10.8658 10.8463 11.9972 12.7939C9.09585 10.8002 6.96662 9.04516 8.39508 7.41171C10.4916 5.01394 16.3 3.85142 15.0165 0.00158691" fill="#9EF01A"/>
<path d="M9.06205 23.2468C14.5758 23.5156 23.0428 23.0977 23.2432 21.1108C23.2432 21.1108 22.8579 21.864 18.6864 22.4622C13.9804 23.1367 8.176 23.058 4.7334 22.6257C4.73356 22.6256 5.43823 23.0699 9.06205 23.2468" fill="#9EF01A"/>
<path d="M8.15839 30.8392C7.63825 31.1828 7.0889 31.3757 6.59591 31.3757C5.89224 31.3757 5.51205 31.0544 5.51205 30.5389C5.51205 29.9814 5.91947 29.5738 7.55358 29.5738H8.15831L8.15839 30.8392V30.8392ZM9.59363 32.0725V28.2549C9.59363 27.2796 8.8633 26.6362 7.10243 26.6362C6.07445 26.6362 5.17396 26.8295 4.44206 27.0761L4.65332 27.7518C5.22958 27.5907 5.9755 27.4408 6.70764 27.4408C7.72201 27.4408 8.15839 27.7518 8.15839 28.3949V28.8775H7.65211C5.18757 28.8775 4.07583 29.6061 4.07583 30.6997C4.07583 31.6435 4.80846 32.18 6.18791 32.18C7.07462 32.18 7.73654 31.9011 8.35529 31.4931L8.4676 32.0727L9.59363 32.0725V32.0725ZM14.3835 32.0725H12.5935L10.4392 26.7329H12.0025L13.3392 30.0135L13.6363 31.0002C14.3126 29.5736 14.791 28.1263 15.0302 26.7329H16.5509C16.1434 28.4911 15.4102 30.4211 14.3835 32.0725V32.0725ZM21.2505 30.8392C20.7294 31.1828 20.1791 31.3757 19.6861 31.3757C18.9836 31.3757 18.6025 31.0544 18.6025 30.5389C18.6025 29.9814 19.0107 29.5738 20.6447 29.5738H21.2505V30.8392ZM22.6856 32.0725V28.2549C22.6856 27.2796 21.9536 26.6362 20.1946 26.6362C19.1659 26.6362 18.2651 26.8295 17.5336 27.0761L17.7446 27.7518C18.321 27.5907 19.0683 27.4408 19.7999 27.4408C20.8135 27.4408 21.2505 27.7518 21.2505 28.3949V28.8775H20.7434C18.2782 28.8775 17.1668 29.6061 17.1668 30.6997C17.1668 31.6435 17.8989 32.18 19.2781 32.18C20.1654 32.18 20.827 31.9011 21.4468 31.4931L21.5595 32.0727L22.6856 32.0725V32.0725ZM2.50212 32.9793C2.09297 33.4342 1.43213 33.7942 0.708653 33.9978L3.05176e-05 33.3627C0.550705 33.1475 1.02298 32.8 1.24241 32.4763C1.43221 32.1884 1.51077 31.8173 1.51077 30.9299V24.8339H3.03563V30.8464C3.03555 32.0327 2.91102 32.5119 2.50212 32.9793" fill="#9EF01A"/>
</g>
<defs>
<clipPath id="clip0">
<rect width="24" height="34" fill="white"/>
</clipPath>
</defs>
</svg>
