<svg width="24" height="24" viewBox="0 0 24 24" fill="none" xmlns="http://www.w3.org/2000/svg">
<path d="M0 0H24V24H0V0Z" fill="#00D261"/>
<path d="M22.0357 18.276C21.8601 17.181 21.146 16.2616 19.0312 15.4038C18.2966 15.0661 17.4776 14.8243 17.2335 14.2677C17.1468 13.9437 17.1354 13.7612 17.1901 13.565C17.3475 12.9285 18.1072 12.73 18.7095 12.9125C19.0973 13.0426 19.4646 13.3414 19.6859 13.8182C20.7217 13.1475 20.7194 13.1521 21.4426 12.6913C21.1779 12.2806 21.0365 12.0912 20.8631 11.9156C20.2403 11.2198 19.3916 10.8616 18.0342 10.889C17.7993 10.9186 17.562 10.9505 17.327 10.9802C16.6495 11.1513 16.0038 11.5072 15.6251 11.984C14.489 13.273 14.813 15.5293 16.1955 16.4578C17.5574 17.4798 19.5582 17.7125 19.8137 18.6684C20.0624 19.8388 18.9536 20.2175 17.8517 20.0829C17.0396 19.9141 16.5879 19.5011 16.0996 18.7506C15.2008 19.2707 15.2008 19.2707 14.2769 19.8023C14.4959 20.2814 14.7263 20.4981 15.0936 20.9133C16.832 22.6768 21.1825 22.5901 21.9628 19.9209C21.9947 19.8296 22.2046 19.2182 22.0357 18.276V18.276ZM13.0472 11.0304H10.8023C10.8023 12.9696 10.7932 14.895 10.7932 16.8342C10.7932 18.0684 10.8571 19.2 10.6563 19.5467C10.3278 20.2289 9.47688 20.1445 9.08905 20.0121C8.69437 19.8182 8.49361 19.5422 8.26091 19.1521C8.19703 19.0403 8.14912 18.9536 8.13313 18.9467C7.52403 19.3186 6.91717 19.6927 6.30804 20.0646C6.61149 20.6874 7.05861 21.2281 7.63123 21.5794C8.48674 22.0927 9.63655 22.2501 10.8388 21.9741C11.6214 21.746 12.2966 21.2737 12.6502 20.5551C13.1612 19.6129 13.0517 18.4722 13.0472 17.2106C13.0586 15.1528 13.0472 13.095 13.0472 11.0304Z" fill="#323330"/>
</svg>
