<svg width="24" height="24" viewBox="0 0 24 24" fill="none" xmlns="http://www.w3.org/2000/svg">
<g clip-path="url(#clip0)">
<path d="M2.62038 20.519C2.62038 19.5674 2.31692 19.0927 1.70885 19.0751C1.46192 19.0586 1.23462 19.1092 1.00615 19.1773C0.815769 19.2279 0.702692 19.296 0.645 19.3476V21.5892C1.02462 21.81 1.36615 21.9122 1.67077 21.8947C2.29731 21.8431 2.62038 21.3848 2.62038 20.519ZM3.36115 20.553C3.36115 21.0288 3.24692 21.4189 2.98154 21.7419C2.69654 22.099 2.31692 22.2858 1.80462 22.2858C1.425 22.3023 1.04538 22.1836 0.646154 21.9628V24.001L0 23.7967V19.2619C0.114231 19.1433 0.246923 19.0411 0.399231 18.9565C0.778846 18.7531 1.25423 18.651 1.785 18.651C2.27885 18.651 2.67692 18.8378 2.94346 19.1949C3.22731 19.585 3.36115 20.0091 3.36115 20.553ZM7.29115 21.8947C7.29115 22.5397 7.215 22.9814 7.08231 23.2198C6.93 23.4572 6.66462 23.6615 6.26538 23.8142C5.92385 23.9329 5.58231 24.001 5.20154 24.001L5.08731 23.644C5.48654 23.5934 5.75192 23.5418 5.90423 23.5077C6.20769 23.4056 6.43615 23.2704 6.54923 23.066C6.64385 22.9133 6.68192 22.6078 6.68192 22.1661V22.0133C6.24577 22.2001 5.77038 22.2848 5.29615 22.2848C4.97308 22.2848 4.68808 22.2001 4.46077 22.0133C4.19538 21.8265 4.06154 21.5716 4.06154 21.2662V18.8718L4.70654 18.6685V21.0804C4.70654 21.3353 4.80115 21.5386 4.99154 21.6748C5.18192 21.8111 5.40923 21.8781 5.71269 21.8781C6.01615 21.8781 6.32077 21.776 6.66231 21.5727V18.7521H7.30731L7.29115 21.8947ZM9.79731 22.2683H9.58846C9.22731 22.2683 8.94346 22.1836 8.73346 22.0309C8.52462 21.8781 8.43 21.6573 8.43 21.3859V19.1102H7.99385V18.7521H8.43V17.7841L9.075 17.5808V18.7521H9.79615V19.1092H9.075V21.3508C9.075 21.5716 9.13154 21.7244 9.26538 21.809C9.37962 21.8771 9.55038 21.9277 9.79731 21.9452V22.2683ZM13.7088 22.2167H13.0638V19.9916C13.0638 19.7707 13.0073 19.5674 12.8931 19.4147C12.7604 19.2279 12.57 19.1433 12.3231 19.1433C12.0196 19.1433 11.6585 19.2795 11.2223 19.5674V22.2342H10.5773V16.9182L11.2223 16.7314V19.1433C11.64 18.8718 12.0773 18.7356 12.57 18.7356C12.9115 18.7356 13.1781 18.8378 13.4054 19.0411C13.6142 19.2444 13.7285 19.4993 13.7285 19.8058L13.7088 22.2167ZM17.1265 20.4168C17.1265 20.0597 17.0504 19.7542 16.8992 19.5169C16.7088 19.2279 16.4435 19.0751 16.0442 19.0586C15.3415 19.0927 14.9804 19.5509 14.9804 20.4168C14.9804 20.8244 15.0565 21.1475 15.2077 21.4189C15.3981 21.7584 15.6819 21.9287 16.0627 21.9287C16.7654 21.9112 17.1265 21.4189 17.1265 20.4168ZM17.8292 20.4168C17.8292 20.9266 17.6769 21.3683 17.3931 21.7079C17.07 22.0815 16.6142 22.2848 16.0638 22.2848C15.4938 22.2848 15.0577 22.098 14.7346 21.7079C14.4496 21.3683 14.2985 20.9431 14.2985 20.4168C14.2985 19.9245 14.4508 19.5169 14.7727 19.1938C15.1142 18.8367 15.5319 18.6675 16.0638 18.6675C16.5958 18.6675 17.0319 18.8378 17.3735 19.1938C17.6769 19.5334 17.8292 19.941 17.8292 20.4168ZM21.5319 22.2167H20.8869V19.8729C20.8869 19.618 20.7923 19.4147 20.6215 19.2785C20.4508 19.1422 20.2223 19.0576 19.9188 19.0751C19.6154 19.0751 19.3108 19.1773 19.0454 19.3466V22.2507H18.4004V19.2785C18.7615 19.0411 19.1031 18.8708 19.4262 18.8027C19.7296 18.7346 19.9765 18.7005 20.205 18.7005C20.3573 18.7005 20.5085 18.717 20.6412 18.7346C20.8881 18.7851 21.0969 18.8873 21.2492 19.0235C21.42 19.1763 21.5146 19.3806 21.5146 19.6004L21.5319 22.2167Z" fill="#9EF01A"/>
<path d="M10.4815 0.00305199C9.87343 0.00305199 9.28496 0.0536218 8.77265 0.139281C7.25418 0.376649 6.98764 0.869962 6.98764 1.80395V3.02692H10.5577V3.43457H5.6584C4.63263 3.43457 3.72224 3.99497 3.43724 5.04764C3.11416 6.27061 3.0957 7.0178 3.43724 8.29133C3.68416 9.24287 4.29224 9.90441 5.33648 9.90441H6.5711V8.44408C6.5711 7.3914 7.59688 6.45741 8.79227 6.45741H12.3427C13.3304 6.45741 14.1277 5.72672 14.1277 4.82679V1.78641C14.1277 0.920532 13.3108 0.274477 12.3427 0.121736C11.715 0.0371092 11.0884 -0.0134606 10.4815 0.00305199ZM8.54419 0.971102C8.90534 0.971102 9.20881 1.24253 9.20881 1.58207C9.20881 1.92161 8.90534 2.19303 8.54419 2.19303C8.18303 2.19303 7.87957 1.92161 7.87957 1.58207C7.87957 1.24253 8.16457 0.971102 8.54419 0.971102Z" fill="#9EF01A"/>
<path d="M14.5639 3.39951V4.80927C14.5639 5.91355 13.5196 6.82999 12.3231 6.82999H8.7727C7.80462 6.82999 6.9877 7.57719 6.9877 8.46061V11.501C6.9877 12.3669 7.82309 12.8767 8.7727 13.1316C9.89309 13.4371 10.9754 13.4887 12.3427 13.1316C13.2346 12.8942 14.1277 12.435 14.1277 11.501V10.278H10.5565V9.87037H15.9115C16.9373 9.87037 17.3354 9.22535 17.6965 8.2573C18.0762 7.25519 18.0577 6.30469 17.6965 5.01361C17.4496 4.09613 16.9558 3.40054 15.9115 3.40054L14.5639 3.39951ZM12.5504 11.0933C12.9115 11.0933 13.215 11.3648 13.215 11.7043C13.215 12.0438 12.9115 12.3153 12.5504 12.3153C12.1892 12.3153 11.8858 12.0438 11.8858 11.7043C11.8858 11.3648 12.1904 11.0933 12.5504 11.0933Z" fill="#9EF01A"/>
<path d="M22.7654 18.2433H22.8796V17.6148H23.145V17.5302H22.5V17.6148H22.7654V18.2433ZM23.2592 18.2433H23.3538V17.6664L23.5627 18.2433H23.6769L23.8858 17.6664V18.2433H24V17.5302H23.8673L23.6204 18.1411L23.4115 17.5302H23.2592V18.2433Z" fill="#9EF01A"/>
<path opacity="0.444" d="M15.3796 15.1864C15.3796 15.6446 13.2346 16.0182 10.5946 16.0182C7.9546 16.0182 5.8096 15.6446 5.8096 15.1864C5.8096 14.7282 7.9546 14.3546 10.5946 14.3546C13.2346 14.3546 15.3796 14.7271 15.3796 15.1864Z" fill="url(#paint0_radial)"/>
</g>
<defs>
<radialGradient id="paint0_radial" cx="0" cy="0" r="1" gradientUnits="userSpaceOnUse" gradientTransform="translate(10.5912 15.0467) rotate(-90) scale(0.82867 4.07319)">
<stop stop-color="#B8B8B8" stop-opacity="0.498"/>
<stop offset="1" stop-color="#7F8080" stop-opacity="0"/>
</radialGradient>
<clipPath id="clip0">
<rect width="24" height="24" fill="white"/>
</clipPath>
</defs>
</svg>
