<svg width="40" height="40" viewBox="0 0 40 40" fill="none" xmlns="http://www.w3.org/2000/svg">
<path d="M40 20.0036C40 17.6781 36.6816 15.4743 31.594 14.1076C32.768 9.55681 32.2462 5.93622 29.947 4.77705C29.417 4.50515 28.7974 4.37636 28.1207 4.37636V5.97199C28.4957 5.97199 28.7974 6.03639 29.0501 6.15803C30.159 6.71615 30.64 8.84128 30.265 11.5746C30.1753 12.2472 30.0285 12.9556 29.8492 13.6783C28.2511 13.3348 26.5063 13.0701 24.6718 12.8983C23.5711 11.5746 22.4297 10.3725 21.2801 9.32068C23.938 7.15262 26.4329 5.96484 28.1288 5.96484V4.3692C25.8867 4.3692 22.9515 5.77164 19.9837 8.20445C17.0159 5.78596 14.0807 4.39782 11.8386 4.39782V5.99346C13.5263 5.99346 16.0294 7.17409 18.6873 9.32784C17.5459 10.3797 16.4044 11.5746 15.32 12.8983C13.4774 13.0701 11.7326 13.3348 10.1345 13.6854C9.947 12.9699 9.8084 12.2758 9.71056 11.6104C9.32735 8.87705 9.80024 6.75192 10.9009 6.18665C11.1455 6.05786 11.4635 6.00061 11.8386 6.00061V4.40498C11.1537 4.40498 10.534 4.53377 9.99592 4.80568C7.70485 5.96484 7.19119 9.57827 8.37342 14.1147C3.30208 15.4886 0 17.6853 0 20.0036C0 22.3291 3.31838 24.5329 8.40603 25.8996C7.23196 30.4503 7.75377 34.0709 10.053 35.2301C10.583 35.502 11.2026 35.6308 11.8875 35.6308C14.1296 35.6308 17.0648 34.2283 20.0326 31.7955C23.0004 34.214 25.9356 35.6022 28.1777 35.6022C28.8626 35.6022 29.4823 35.4734 30.0204 35.2015C32.3115 34.0423 32.8251 30.4289 31.6429 25.8924C36.6979 24.5257 40 22.3219 40 20.0036V20.0036ZM29.3844 15.231C29.0828 16.154 28.7077 17.1057 28.2837 18.0573C27.9494 17.4849 27.5989 16.9125 27.2157 16.3401C26.8406 15.7676 26.4411 15.2095 26.0416 14.6657C27.1994 14.816 28.3163 15.002 29.3844 15.231ZM25.6502 22.8514C25.0143 23.8174 24.362 24.7332 23.6853 25.5847C22.4704 25.6777 21.2393 25.7278 20 25.7278C18.7689 25.7278 17.5377 25.6777 16.331 25.5919C15.6543 24.7404 14.9939 23.8317 14.3579 22.8729C13.7383 21.9355 13.1757 20.9839 12.662 20.025C13.1676 19.0662 13.7383 18.1074 14.3498 17.1701C14.9857 16.2041 15.638 15.2882 16.3147 14.4367C17.5296 14.3437 18.7607 14.2936 20 14.2936C21.2311 14.2936 22.4623 14.3437 23.669 14.4296C24.3457 15.2811 25.0061 16.1898 25.6421 17.1486C26.2617 18.0859 26.8243 19.0376 27.338 19.9964C26.8243 20.9552 26.2617 21.914 25.6502 22.8514ZM28.2837 21.9212C28.724 22.88 29.0991 23.8388 29.4089 24.769C28.3408 24.998 27.2157 25.1912 26.0497 25.3414C26.4492 24.7905 26.8488 24.2252 27.2238 23.6456C27.5989 23.0732 27.9494 22.4936 28.2837 21.9212ZM20.0163 29.5559C19.2581 28.869 18.4998 28.1034 17.7497 27.2662C18.4835 27.2948 19.2336 27.3163 19.9918 27.3163C20.7583 27.3163 21.5165 27.302 22.2585 27.2662C21.5247 28.1034 20.7664 28.869 20.0163 29.5559ZM13.9503 25.3414C12.7925 25.1912 11.6755 25.0051 10.6074 24.7762C10.9091 23.8531 11.2841 22.9015 11.7081 21.9498C12.0424 22.5222 12.393 23.0947 12.7762 23.6671C13.1594 24.2395 13.5508 24.7976 13.9503 25.3414ZM19.9755 10.4512C20.7338 11.1381 21.4921 11.9038 22.2422 12.7409C21.5084 12.7123 20.7583 12.6908 20 12.6908C19.2336 12.6908 18.4753 12.7051 17.7334 12.7409C18.4672 11.9038 19.2254 11.1381 19.9755 10.4512ZM13.9421 14.6657C13.5426 15.2167 13.1431 15.7819 12.768 16.3615C12.393 16.9339 12.0424 17.5064 11.7081 18.0788C11.2678 17.12 10.8928 16.1612 10.583 15.231C11.651 15.0092 12.7762 14.816 13.9421 14.6657V14.6657ZM6.56339 23.6242C3.67713 22.5437 1.81003 21.127 1.81003 20.0036C1.81003 18.8802 3.67713 17.4563 6.56339 16.383C7.26458 16.1182 8.03098 15.8821 8.82185 15.6603C9.28659 17.0627 9.89808 18.5224 10.6563 20.0179C9.90624 21.5062 9.3029 22.9587 8.84631 24.354C8.03914 24.1322 7.27273 23.8889 6.56339 23.6242ZM10.9499 33.8491C9.84101 33.291 9.35997 31.1659 9.73502 28.4325C9.82471 27.7599 9.97147 27.0516 10.1508 26.3289C11.7489 26.6723 13.4937 26.9371 15.3282 27.1088C16.4289 28.4325 17.5703 29.6346 18.7199 30.6865C16.062 32.8545 13.5671 34.0423 11.8712 34.0423C11.5043 34.0352 11.1945 33.9708 10.9499 33.8491V33.8491ZM30.2894 28.3968C30.6726 31.1301 30.1998 33.2552 29.0991 33.8205C28.8545 33.9493 28.5365 34.0065 28.1614 34.0065C26.4737 34.0065 23.9707 32.8259 21.3127 30.6722C22.4541 29.6203 23.5956 28.4254 24.68 27.1017C26.5226 26.9299 28.2674 26.6652 29.8655 26.3146C30.053 27.0373 30.1998 27.7313 30.2894 28.3968V28.3968ZM33.4285 23.6242C32.7273 23.8889 31.9609 24.125 31.17 24.3469C30.7053 22.9444 30.0938 21.4847 29.3355 19.9893C30.0856 18.501 30.689 17.0484 31.1455 15.6531C31.9527 15.875 32.7191 16.1182 33.4366 16.383C36.3229 17.4634 38.19 18.8802 38.19 20.0036C38.1818 21.127 36.3147 22.5509 33.4285 23.6242V23.6242Z" fill="#9EF01A"/>
<path d="M19.9919 23.2735C22.0497 23.2735 23.7179 21.8095 23.7179 20.0036C23.7179 18.1976 22.0497 16.7336 19.9919 16.7336C17.934 16.7336 16.2658 18.1976 16.2658 20.0036C16.2658 21.8095 17.934 23.2735 19.9919 23.2735Z" fill="#9EF01A"/>
</svg>
