<svg width="24" height="24" viewBox="0 0 24 24" fill="none" xmlns="http://www.w3.org/2000/svg">
<path d="M19.9335 12.978C19.1645 12.982 18.4985 13.1665 17.9405 13.442C17.7365 13.0345 17.5295 12.676 17.495 12.4095C17.4545 12.0985 17.4075 11.9125 17.4565 11.542C17.5055 11.1715 17.72 10.6465 17.717 10.607C17.714 10.5675 17.669 10.379 17.2255 10.3755C16.782 10.3725 16.4025 10.461 16.358 10.578C16.3135 10.695 16.228 10.9585 16.175 11.2335C16.0975 11.6355 15.2895 13.07 14.831 13.82C14.681 13.527 14.5535 13.269 14.527 13.065C14.4865 12.754 14.4395 12.568 14.4885 12.1975C14.5375 11.827 14.752 11.302 14.749 11.2625C14.746 11.223 14.701 11.0345 14.2575 11.031C13.814 11.028 13.4345 11.1165 13.39 11.2335C13.3455 11.3505 13.2975 11.624 13.207 11.889C13.116 12.1535 12.0425 14.546 11.761 15.1665C11.6175 15.4825 11.493 15.7365 11.405 15.9095C11.4045 15.909 11.4045 15.9085 11.4045 15.9085C11.4045 15.9085 11.399 15.92 11.39 15.9395C11.3145 16.087 11.27 16.1685 11.27 16.1685C11.27 16.1685 11.2705 16.1695 11.2715 16.1715C11.2115 16.28 11.1475 16.3805 11.116 16.3805C11.094 16.3805 11.0495 16.092 11.1255 15.696C11.2855 14.866 11.669 13.572 11.6655 13.527C11.6635 13.504 11.737 13.2785 11.415 13.1605C11.102 13.046 10.9905 13.237 10.962 13.2375C10.9345 13.238 10.914 13.305 10.914 13.305C10.914 13.305 11.2625 11.8495 10.249 11.8495C9.615 11.8495 8.737 12.543 8.3045 13.1715C8.0315 13.3205 7.447 13.6395 6.8275 13.98C6.5895 14.111 6.3465 14.2445 6.116 14.3715C6.1005 14.354 6.0845 14.337 6.0685 14.3195C4.839 13.008 2.567 12.0805 2.663 10.317C2.698 9.67603 2.921 7.98803 7.0295 5.94103C10.395 4.26403 13.0895 4.72553 13.555 5.74803C14.22 7.20953 12.115 9.92503 8.62 10.317C7.2885 10.4665 6.587 9.95003 6.4125 9.75803C6.229 9.55553 6.2015 9.54653 6.133 9.58453C6.0215 9.64653 6.092 9.82503 6.133 9.93153C6.2375 10.203 6.6655 10.6845 7.3955 10.9245C8.038 11.1355 9.6015 11.251 11.492 10.5195C13.61 9.70053 15.2635 7.42153 14.7775 5.51703C14.2835 3.58003 11.0715 2.94303 8.0315 4.02303C6.22 4.66603 4.2615 5.67503 2.853 6.99203C1.1785 8.55803 0.911505 9.92153 1.0215 10.491C1.4125 12.515 4.202 13.833 5.319 14.8095C5.264 14.84 5.212 14.8685 5.165 14.8945C4.605 15.1715 2.4785 16.2845 1.9465 17.46C1.343 18.7935 2.0425 19.7505 2.5055 19.8795C3.94 20.2785 5.412 19.5605 6.2035 18.3805C6.9945 17.201 6.898 15.6645 6.535 14.9635C6.5305 14.955 6.5255 14.9465 6.521 14.9375C6.6655 14.852 6.813 14.765 6.959 14.679C7.244 14.5115 7.524 14.3555 7.7665 14.2235C7.6305 14.5955 7.531 15.042 7.4795 15.6865C7.4185 16.4435 7.72901 17.422 8.135 17.807C8.31401 17.9765 8.529 17.9805 8.665 17.9805C9.1375 17.9805 9.353 17.5875 9.5905 17.1225C9.8815 16.5525 10.14 15.8885 10.14 15.8885C10.14 15.8885 9.81601 17.6815 10.699 17.6815C11.021 17.6815 11.3445 17.264 11.489 17.0515C11.4895 17.054 11.4895 17.055 11.4895 17.055C11.4895 17.055 11.498 17.041 11.5145 17.0135C11.548 16.9625 11.567 16.93 11.567 16.93C11.567 16.93 11.5675 16.9265 11.5685 16.9205C11.698 16.696 11.985 16.184 12.415 15.3395C12.971 14.2485 13.504 12.8815 13.504 12.8815C13.504 12.8815 13.5535 13.2155 13.716 13.7685C13.8115 14.0935 14.0145 14.453 14.175 14.798C14.046 14.977 13.967 15.0795 13.967 15.0795C13.967 15.0795 13.9675 15.0815 13.969 15.085C13.866 15.222 13.7505 15.3695 13.6295 15.5135C13.1905 16.036 12.668 16.633 12.598 16.805C12.5155 17.008 12.535 17.157 12.6945 17.2775C12.811 17.365 13.018 17.379 13.2345 17.3645C13.629 17.338 13.906 17.24 14.043 17.1805C14.2565 17.105 14.505 16.9865 14.738 16.815C15.1685 16.4985 15.428 16.046 15.403 15.446C15.389 15.1155 15.284 14.788 15.1505 14.479C15.1895 14.423 15.2285 14.366 15.268 14.309C15.9465 13.317 16.473 12.227 16.473 12.227C16.473 12.227 16.5225 12.561 16.685 13.114C16.767 13.3935 16.9295 13.699 17.0755 13.998C16.4375 14.5165 16.042 15.119 15.9045 15.514C15.6505 16.245 15.8495 16.576 16.2225 16.6515C16.3915 16.6855 16.6305 16.608 16.81 16.532C17.0335 16.458 17.302 16.3345 17.553 16.15C17.9835 15.8335 18.3975 15.3905 18.3725 14.791C18.361 14.518 18.287 14.247 18.1865 13.987C18.7275 13.7615 19.4275 13.6365 20.3195 13.7405C22.233 13.964 22.608 15.1585 22.5365 15.6585C22.4645 16.1585 22.0635 16.4335 21.929 16.5165C21.795 16.5995 21.754 16.6285 21.765 16.69C21.7815 16.7795 21.8435 16.7765 21.958 16.757C22.1155 16.7305 22.9625 16.3505 22.999 15.4275C23.0445 14.2545 21.922 12.9675 19.9335 12.978ZM5.185 17.95C4.551 18.6415 3.666 18.9025 3.286 18.6825C2.876 18.445 3.0385 17.427 3.816 16.693C4.29 16.246 4.902 15.834 5.308 15.5805C5.4005 15.525 5.536 15.4435 5.701 15.3445C5.7285 15.329 5.744 15.3205 5.744 15.3205L5.74351 15.3195C5.77551 15.3005 5.808 15.281 5.8415 15.2605C6.125 16.305 5.8505 17.2245 5.185 17.95ZM9.8025 14.8115C9.582 15.3495 9.12 16.7265 8.8385 16.6525C8.597 16.589 8.45 15.5425 8.7905 14.5125C8.9615 13.994 9.3275 13.3745 9.5425 13.134C9.8885 12.747 10.2695 12.6205 10.362 12.7775C10.4795 12.9775 9.941 14.474 9.8025 14.8115ZM13.617 16.6315C13.5235 16.6805 13.4375 16.711 13.398 16.6875C13.3685 16.67 13.4365 16.6055 13.4365 16.6055C13.4365 16.6055 13.9135 16.092 14.1015 15.8585C14.211 15.7225 14.3375 15.561 14.4755 15.381C14.4765 15.399 14.477 15.417 14.477 15.4345C14.476 16.0495 13.882 16.4645 13.617 16.6315ZM16.5555 15.9615C16.4855 15.912 16.4975 15.7515 16.727 15.251C16.817 15.0545 17.023 14.724 17.38 14.408C17.4215 14.538 17.4465 14.6625 17.446 14.7785C17.4415 15.5525 16.8895 15.8415 16.5555 15.9615Z" fill="#00D261"/>
</svg>
